<?xml version="1.0" encoding="UTF-8"?>
<svg id="Calque_1" data-name="Calque 1" xmlns="http://www.w3.org/2000/svg" viewBox="0 0 800 800">
  <defs>
    <style>
      .cls-1 {
        fill: #ffd54f;
      }
    </style>
  </defs>
  <path class="cls-1" d="m611.07,280.62c0-112.84-91.48-204.32-204.32-204.32s-204.32,91.48-204.32,204.32c-.02,31.96,7.35,63.5,21.53,92.14,11.33,22.19,24.73,43.25,40.01,62.92,12.49,13.5,21.65,29.75,26.73,47.43v45.21c0,19.35,15.68,35.03,35.03,35.03.02,0,.04,0,.06,0h161.93c19.35,0,35.03-15.68,35.03-35.03h0v-45.21c5.08-17.68,14.23-33.93,26.73-47.43,15.31-19.66,28.73-40.73,40.07-62.92,14.18-28.65,21.55-60.18,21.53-92.14Z"/>
  <path class="cls-1" d="m505.2,609.46c-.03-9.65-7.84-17.46-17.49-17.49h-161.98c-9.67-.54-17.96,6.86-18.5,16.53-.54,9.67,6.86,17.96,16.53,18.5.66.04,1.31.04,1.97,0h161.93c9.67-.03,17.49-7.88,17.49-17.54h.06Z"/>
  <path class="cls-1" d="m479.02,661.09c-1.21-3.55-4.55-5.93-8.3-5.92h-130.16c-4.83-.04-8.78,3.84-8.82,8.67-.02,2.73,1.23,5.32,3.4,6.99,41.46,32.23,99.5,32.23,140.95,0,2.96-2.29,4.14-6.2,2.93-9.74Z"/>
</svg>