<?xml version="1.0" encoding="UTF-8"?>
<svg id="Calque_1" data-name="Calque 1" xmlns="http://www.w3.org/2000/svg" viewBox="0 0 800 800">
  <circle cx="400" cy="400" r="100" style="fill: none; stroke: #000; stroke-miterlimit: 133.33; stroke-width: 50px;"/>
  <path d="m122,354.6c15.8,9.9,25.9,26.8,25.9,45.4s-10.1,35.5-25.9,45.4c-10.7,6.7-17.6,12.1-22.5,18.5-10.8,14-15.5,31.8-13.2,49.3,1.7,13.1,9.5,26.6,25,53.5s23.3,40.3,33.8,48.4c14,10.8,31.8,15.5,49.3,13.2,8-1.1,16.1-4.3,27.3-10.3,16.4-8.7,36.1-9,52.2.3s25.6,26.5,26.3,45.1c.5,12.7,1.7,21.3,4.8,28.8,6.8,16.3,19.7,29.3,36.1,36.1,12.3,5.1,27.8,5.1,58.8,5.1s46.6,0,58.8-5.1c16.3-6.8,29.3-19.7,36.1-36.1,3.1-7.5,4.3-16.1,4.8-28.8.7-18.6,10.2-35.8,26.3-45.1,16.1-9.3,35.8-9,52.2-.3,11.2,5.9,19.3,9.2,27.3,10.3,17.5,2.3,35.3-2.4,49.3-13.2,10.5-8.1,18.3-21.5,33.8-48.4,6.9-12,12.3-21.3,16.3-29.1m-26.8-92.2c-15.8-9.9-25.9-26.8-25.9-45.4s10.1-35.5,25.9-45.4c10.7-6.7,17.6-12.1,22.5-18.5,10.8-14,15.5-31.8,13.2-49.3-1.7-13.1-9.5-26.6-25-53.5s-23.3-40.4-33.8-48.4c-14-10.8-31.8-15.5-49.3-13.2-8,1.1-16.1,4.3-27.3,10.3-16.4,8.7-36.1,9-52.2-.3-16.1-9.3-25.6-26.5-26.3-45.1-.5-12.7-1.7-21.3-4.8-28.8-6.8-16.3-19.7-29.3-36.1-36.1-12.3-5.1-27.8-5.1-58.8-5.1s-46.6,0-58.8,5.1c-16.3,6.8-29.3,19.7-36.1,36.1-3.1,7.5-4.3,16.1-4.8,28.8-.7,18.6-10.2,35.8-26.3,45.1-16.1,9.3-35.8,9-52.2.3-11.2-5.9-19.3-9.2-27.3-10.3-17.5-2.3-35.3,2.4-49.3,13.2-10.5,8.1-18.3,21.5-33.8,48.4-6.9,12-12.3,21.3-16.3,29.1" style="fill: none; stroke: #000; stroke-linecap: round; stroke-miterlimit: 133.33; stroke-width: 50px;"/>
</svg>